<svg height="15" viewBox="0 0 31 37" fill="none" xmlns="http://www.w3.org/2000/svg">
<path d="M1.25 35V2C1.25 1.44772 1.69772 1 2.25 1H20.3358C20.601 1 20.8554 1.10536 21.0429 1.29289L29.4571 9.70711C29.6446 9.89464 29.75 10.149 29.75 10.4142V35C29.75 35.5523 29.3023 36 28.75 36H2.25C1.69772 36 1.25 35.5523 1.25 35Z" stroke="black"/>
<path d="M20.75 1V9C20.75 9.55228 21.1977 10 21.75 10H29.75" stroke="black"/>
<path d="M6.75 16.5H23.75" stroke="black" stroke-linecap="round"/>
<path d="M6.75 21.5H23.75" stroke="black" stroke-linecap="round"/>
<path d="M6.75 26.5H23.75" stroke="black" stroke-linecap="round"/>
<path d="M6.75 31.5H23.75" stroke="black" stroke-linecap="round"/>
<path d="M7.57812 5.75391C7.64258 4.48828 8.48633 3.48047 10.1328 3.48047C11.6094 3.48047 12.6172 4.39453 12.6172 5.60156C12.6172 6.52148 12.1426 7.17188 11.3926 7.62305C10.6484 8.0625 10.4375 8.39062 10.4375 9.00586V9.38672H9.41211V8.84766C9.40625 8.07422 9.78125 7.54688 10.584 7.06641C11.2637 6.65039 11.5273 6.28125 11.5273 5.6543C11.5273 4.92773 10.9648 4.39453 10.0918 4.39453C9.20703 4.39453 8.64453 4.91602 8.58008 5.75391H7.57812ZM9.92773 12.0586C9.55273 12.0586 9.25977 11.7656 9.25977 11.3906C9.25977 11.0098 9.55273 10.7227 9.92773 10.7227C10.3086 10.7227 10.5957 11.0098 10.5957 11.3906C10.5957 11.7656 10.3086 12.0586 9.92773 12.0586Z" fill="black"/>
</svg>
