<svg  height="15" viewBox="0 0 39 36" fill="none" xmlns="http://www.w3.org/2000/svg">
<path d="M1.75 0.499999L32.75 0.5C33.3023 0.5 33.75 0.947716 33.75 1.5L33.75 19.6579L33.75 23.5C33.75 24.0523 33.3023 24.5 32.75 24.5L11.6199 24.5C11.3812 24.5 11.1504 24.5854 10.9691 24.7407L4.25 30.5L4.25 24.5L1.75 24.5C1.19771 24.5 0.749999 24.0523 0.749999 23.5L0.75 1.5C0.75 0.947714 1.19772 0.499999 1.75 0.499999Z" stroke="black"/>
<path d="M34.25 4.5H37.25C37.8023 4.5 38.25 4.94772 38.25 5.5V27C38.25 27.5523 37.8023 28 37.25 28H35.25C34.6977 28 34.25 28.4477 34.25 29V34.5L28.0429 28.2929C27.8554 28.1054 27.601 28 27.3358 28H10.25" stroke="black" stroke-linecap="round"/>
<path d="M8.75 9.5H25.75" stroke="black" stroke-linecap="round"/>
<path d="M8.75 15.5H25.75" stroke="black" stroke-linecap="round"/>
</svg>
