<svg height="17" viewBox="0 0 42 42" fill="none" xmlns="http://www.w3.org/2000/svg">
<path d="M6.25 40V16.5V16C6.25 15.4477 6.69772 15 7.25 15H17.2694C17.5732 15 17.8605 15.1381 18.0502 15.3753L19.4498 17.1247C19.6395 17.3619 19.9268 17.5 20.2306 17.5H40.25C40.8023 17.5 41.25 17.9477 41.25 18.5V40C41.25 40.5523 40.8023 41 40.25 41H7.25C6.69772 41 6.25 40.5523 6.25 40Z" stroke="black" stroke-linecap="round"/>
<path d="M5.75 38L1.14091 22.79C0.946309 22.1478 1.42691 21.5 2.09794 21.5H6.25" stroke="black" stroke-linecap="round"/>
<path d="M16.25 14.5L21.8549 1.88892C22.0749 1.39406 22.6487 1.16419 23.1495 1.37038L38.318 7.61622C38.8315 7.82768 39.0744 8.4171 38.8589 8.92896L35.25 17.5" stroke="black" stroke-linecap="round"/>
<path d="M23.75 6.5L34.25 11" stroke="black" stroke-linecap="round"/>
<path d="M22.75 9L33.25 13.5" stroke="black" stroke-linecap="round"/>
<path d="M21.75 11L32.25 15.5" stroke="black" stroke-linecap="round"/>
</svg>
