<svg width="39"  viewBox="0 0 69 60" fill="none" xmlns="http://www.w3.org/2000/svg">
<path d="M29.1289 46.3054L35.7786 29.7449C38.9452 29.5698 44.0831 30.2863 47.2655 31.0586L40.4257 48.0968C37.3225 47.3245 32.2321 46.385 29.1289 46.3054Z" fill="#3D87CF"/>
<path d="M59.0216 37.7247L52.1104 54.8424C49.7989 52.9316 43.4657 49.3009 40.4258 48.0988L47.2656 31.0605C50.3609 32.1672 56.9713 35.5034 59.0216 37.7247Z" fill="#FAC705"/>
<path d="M65.7902 21.8674L59.0058 37.7271C56.7891 35.6889 50.3768 32.2097 47.2498 31.0632L54.1054 13.9932C57.2325 15.0441 63.7557 19.5347 65.7902 21.8674Z" fill="#66C557"/>
<path d="M35.7763 29.7552L42.5211 12.9956C45.6798 12.8841 50.9441 13.3857 54.1186 13.9988L47.263 31.0688C44.1201 30.201 38.9192 29.6915 35.7763 29.7552Z" fill="#F3632E"/>
<path d="M12.9363 35.9103L9.68262 35.8547C9.90427 35.1938 10.1893 34.4534 10.4663 33.8324L13.7517 33.8242C13.5142 34.501 13.2293 35.2336 12.9363 35.9103Z" fill="#3D87CF"/>
<path d="M17.9622 38.6417L13.8616 38.6178L15.0095 35.8153C16.3632 35.8071 17.7328 35.8153 19.0943 35.8629L17.9622 38.6417Z" fill="#3D87CF"/>
<path d="M24.7716 37.9486C24.2966 39.0473 23.8929 40.2257 23.4021 41.3324L18.7869 41.2768L20.1485 37.917L24.7716 37.9486Z" fill="#3D87CF"/>
<path d="M8.55874 32.5474L6.19165 32.5311C6.38154 31.9818 6.61915 31.3687 6.86455 30.8193C7.67203 30.8112 8.47951 30.7637 9.28696 30.7955L8.55874 32.5474Z" fill="#3D87CF"/>
<path d="M4.28267 29.0618C3.6731 29.0781 3.05561 29.1415 2.44604 29.1254L3.03978 27.6764C3.64935 27.6446 4.25892 27.6128 4.86848 27.6128L4.28267 29.0618Z" fill="#3D87CF"/>
<path d="M15.0844 30.5298L11.8228 30.49L12.6065 28.4757C13.7148 28.5075 14.8232 28.4439 15.9234 28.4839L15.0844 30.5298Z" fill="#3D87CF"/>
<path d="M20.0903 33.3014L16.0212 33.2851L17.1217 30.4985C18.4912 30.4903 19.8608 30.4822 21.2304 30.5148L20.0903 33.3014Z" fill="#3D87CF"/>
<path d="M25.5824 35.9306L20.9512 35.8271L22.297 32.5229L26.9124 32.5707L25.5824 35.9306Z" fill="#3D87CF"/>
<path d="M10.8082 26.983C10.0166 26.9591 9.20117 27.0227 8.40161 26.9748L9.1299 25.1675L11.4891 25.2311C11.315 25.7963 11.0695 26.4177 10.8082 26.983Z" fill="#3D87CF"/>
<path d="M6.51181 23.518L4.68311 23.5578L5.24517 22.1167C5.83891 22.0611 6.48014 22.061 7.09763 22.061L6.51181 23.518Z" fill="#3D87CF"/>
<path d="M19.5227 19.4823L16.2532 19.4584L17.0527 17.4043C18.1531 17.4206 19.2534 17.4043 20.3618 17.4282L19.5227 19.4823Z" fill="#F3632E"/>
<path d="M20.4753 22.2545L21.5758 19.436H25.6527L24.5523 22.2545H20.4753Z" fill="#F3632E"/>
<path d="M30.0814 24.7005L25.4502 24.6687L26.7881 21.3169L31.4112 21.3332L30.0814 24.7005Z" fill="#F3632E"/>
<path d="M15.2669 15.8953C14.4911 15.9351 13.6757 15.8953 12.884 15.9116L13.549 14.1282C14.3248 14.0646 15.1481 14.16 15.9319 14.1364L15.2669 15.8953Z" fill="#F3632E"/>
<path d="M10.9501 12.4098C10.3406 12.4261 9.73101 12.4894 9.11353 12.4654L9.71521 11.0164L11.5281 10.9287L10.9501 12.4098Z" fill="#F3632E"/>
<path d="M21.7318 13.979C20.6393 13.979 19.5469 13.9627 18.4543 13.9154L19.2618 11.9011C20.3622 11.9174 21.4625 11.8773 22.563 11.9093L21.7318 13.979Z" fill="#F3632E"/>
<path d="M26.7374 16.7511C25.3758 16.7511 24.0061 16.7749 22.6367 16.7348L23.7767 13.9322C25.1462 13.9159 26.508 13.9404 27.8774 13.9485L26.7374 16.7511Z" fill="#F3632E"/>
<path d="M32.189 19.4215L27.5896 19.3738L28.9275 16.0059L33.5587 16.0376L32.189 19.4215Z" fill="#F3632E"/>
<path d="M17.4555 10.3918H15.0647L15.7693 8.58447C16.5767 8.62422 17.3684 8.58446 18.168 8.63215L17.4555 10.3918Z" fill="#F3632E"/>
<path d="M13.1794 6.8862L11.3428 6.96588L11.9128 5.50891C12.5223 5.43717 13.1398 5.46915 13.7494 5.4292L13.1794 6.8862Z" fill="#F3632E"/>
<path d="M10.8692 41.536C9.57884 41.5523 8.28063 41.5441 6.98218 41.5042L7.9084 39.1953C9.20671 39.1953 10.513 39.2351 11.8271 39.2192L10.8692 41.536Z" fill="black"/>
<path d="M40.5996 15.9361L34.781 15.9759L36.8234 10.8724C38.8025 10.6494 40.7974 10.4345 42.7845 10.4982L40.5996 15.9361Z" fill="black"/>
<path d="M15.4696 1.64809L13.261 1.6958L13.9023 0.0476773C14.6464 0.0313716 15.3905 0 16.1348 0L15.4696 1.64809Z" fill="black"/>
<path d="M19.8673 4.909C18.8857 4.8772 17.904 4.88514 16.9146 4.8454L17.6904 2.93457C18.6799 2.96637 19.6695 2.91828 20.6589 2.98228L19.8673 4.909Z" fill="black"/>
<path d="M34.6818 14.1423L29.1799 14.1184L30.7791 10.0977L36.289 10.1454L34.6818 14.1423Z" fill="black"/>
<path d="M24.3663 11.3295L25.5617 8.28809L30.4144 8.29627L29.1952 11.3615L24.3663 11.3295Z" fill="black"/>
<path d="M24.1232 8.53738L20.2283 8.50559L21.1307 6.2126C22.429 6.2126 23.7354 6.16491 25.0494 6.2126L24.1232 8.53738Z" fill="black"/>
<path d="M38.4716 21.2557C36.5321 21.3034 34.5846 21.3354 32.6372 21.3433L34.5372 16.622L40.34 16.5981L38.4716 21.2557Z" fill="black"/>
<path d="M36.2828 26.6772L30.4642 26.7569L30.4326 26.7406L32.3167 22.0193L38.1827 21.9316L36.2828 26.6772Z" fill="black"/>
<path d="M6.67407 18.1166L7.31534 16.4845L9.55576 16.4048L8.89869 18.0847L6.67407 18.1166Z" fill="black"/>
<path d="M28.2981 32.1194L30.1743 27.414L36.0008 27.3423L34.1404 32.0557L28.2981 32.1194Z" fill="black"/>
<path d="M13.1996 21.5004L10.2468 21.4606L11.0226 19.5498C12.0122 19.5816 12.9938 19.5335 13.9833 19.5975L13.1996 21.5004Z" fill="black"/>
<path d="M28.0346 30.6722L22.5327 30.6325L24.116 26.6357L29.6337 26.6835L28.0346 30.6722Z" fill="black"/>
<path d="M22.5423 27.9411L17.737 27.9248L17.6975 27.9085L18.9246 24.875L23.7694 24.8831L22.5423 27.9411Z" fill="black"/>
<path d="M17.4557 25.1488L13.5686 25.1091L14.4632 22.8161C15.7773 22.7998 17.0994 22.808 18.4134 22.8324L17.4557 25.1488Z" fill="black"/>
<path d="M31.9459 37.5205L31.9222 37.5761L26.0957 37.6479L28.0036 32.815L33.8617 32.7515L31.9459 37.5205Z" fill="black"/>
<path d="M29.7571 42.9628L23.9148 43.1061L23.8752 43.0898L25.8148 38.3047L31.6334 38.249L29.7571 42.9628Z" fill="black"/>
<path d="M2.21544 34.6874C1.47921 34.6635 0.742984 34.7351 0.00683594 34.6874L0.64807 33.111C1.40013 33.0474 2.15221 33.0632 2.91221 33.0312L2.21544 34.6874Z" fill="black"/>
<path d="M27.4265 48.7511C25.4791 48.7035 23.5395 48.6876 21.5842 48.8467L23.6187 43.7671L29.4848 43.6636L27.4265 48.7511Z" fill="black"/>
<path d="M6.55237 38.1119L3.57568 38.1283L4.31191 36.2254C5.31732 36.2254 6.30687 36.1936 7.31232 36.2172L6.55237 38.1119Z" fill="black"/>
<path d="M21.4278 47.1206L15.9497 47.041L17.5567 43.0522L23.0349 43.1079L21.4278 47.1206Z" fill="black"/>
<path d="M11.1326 44.3281L12.3596 41.2549L17.1807 41.2867L15.9537 44.3678L11.1326 44.3281Z" fill="black"/>
<path fill-rule="evenodd" clip-rule="evenodd" d="M62.7708 22.7434C60.7362 20.4107 57.9101 18.7547 54.783 17.7115L49.8906 29.8851C53.0098 31.0396 55.7646 32.6241 57.9813 34.6542L62.7708 22.7434ZM56.4218 38.6272C54.3715 36.406 51.4345 34.8294 48.3469 33.7229L43.3754 46.1593C46.4075 47.3615 49.2494 48.7867 51.5611 50.6975L56.4218 38.6272ZM68.9931 21.3263L53.453 60.0054C49.4235 54.48 42.4175 50.9927 35.3796 49.6711C32.9572 49.2252 30.5269 48.8908 28.1045 48.7953L30.139 43.7634C33.2421 43.851 36.3534 44.2172 39.4568 44.9974L44.4759 32.4895C41.2935 31.7172 38.119 31.6217 34.9524 31.7968L36.5832 27.6886C39.7182 27.625 42.8611 27.824 46.0037 28.6918L50.8486 16.6456C47.6741 16.0245 44.4996 15.8016 41.3409 15.913L43.51 10.4672C50.714 10.4354 59.0501 12.4576 64.9556 17.2664C66.4519 18.4607 67.8294 19.7817 68.9931 21.3263Z" fill="black"/>
</svg>
